<svg fill="none" height="24" viewbox="0 0 24 24" width="24" xmlns="http://www.w3.org/2000/svg">
<path d="M20 3H4C2.89543 3 2 3.89543 2 5V16C2 17.1046 2.89543 18 4 18H4.5C5.05228 18 5.5 18.4477 5.5 19V21.5052C5.5 22.1441 6.21212 22.5253 6.74376 22.1708L11.4885 19.0077C12.4741 18.3506 13.6321 18 14.8167 18H20C21.1046 18 22 17.1046 22 16V5C22 3.89543 21.1046 3 20 3Z" fill="currentColor" opacity="0.3"></path>
<rect fill="currentColor" height="2" rx="1" width="7" x="6" y="12"></rect>
<rect fill="currentColor" height="2" rx="1" width="12" x="6" y="7"></rect>
</svg>